<?xml version="1.0" encoding="UTF-8"?>
<svg xmlns="http://www.w3.org/2000/svg" width="1080" height="1920" viewBox="0 0 1080 1920">
<defs>

  <linearGradient id="bgGrad-sa-qpwaldw" x1="0" y1="0" x2="0.4" y2="1">
    <stop offset="0%" stop-color="#0a0f1a"/>
    <stop offset="55%" stop-color="#010409"/>
    <stop offset="100%" stop-color="#030712"/>
  </linearGradient>
  <radialGradient id="glowAccent-sa-qpwaldw" cx="86%" cy="12%" r="50%">
    <stop offset="0%" stop-color="#14b8a6" stop-opacity="0.24"/>
    <stop offset="100%" stop-color="#14b8a6" stop-opacity="0"/>
  </radialGradient>
  <radialGradient id="glowSoft-sa-qpwaldw" cx="15%" cy="92%" r="45%">
    <stop offset="0%" stop-color="#134e4a" stop-opacity="0.4"/>
    <stop offset="100%" stop-color="#134e4a" stop-opacity="0"/>
  </radialGradient>
  <linearGradient id="glassGrad-sa-qpwaldw" x1="0" y1="0" x2="0" y2="1">
    <stop offset="0%" stop-color="rgba(255,255,255,0.06)"/>
    <stop offset="100%" stop-color="rgba(255,255,255,0.01)"/>
  </linearGradient>
  <linearGradient id="chipGrad-sa-qpwaldw" x1="0" y1="0" x2="1" y2="0">
    <stop offset="0%" stop-color="rgba(20,184,166,0.28)"/>
    <stop offset="100%" stop-color="rgba(20,184,166,0.08)"/>
  </linearGradient>
  <pattern id="topicPattern-sa-qpwaldw" width="70" height="70" patternUnits="userSpaceOnUse">
      <path d="M10 35 Q35 10 60 35 Q35 60 10 35" fill="none" stroke="#14b8a6" stroke-width="0.9" opacity="0.12"/>
    </pattern>

  <filter id="cardShadow-sa-qpwaldw" x="-20%" y="-20%" width="140%" height="140%">
    <feDropShadow dx="0" dy="8" stdDeviation="12" flood-color="#000000" flood-opacity="0.45"/>
    <feDropShadow dx="0" dy="2" stdDeviation="4" flood-color="#10b981" flood-opacity="0.08"/>
  </filter>
  <filter id="innerGlow-sa-qpwaldw" x="-10%" y="-10%" width="120%" height="120%">
    <feGaussianBlur in="SourceAlpha" stdDeviation="3" result="blur"/>
    <feOffset dx="0" dy="1"/>
    <feComposite in2="SourceAlpha" operator="arithmetic" k2="-1" k3="1"/>
    <feColorMatrix type="matrix" values="0 0 0 0 0.06 0 0 0 0 0.73 0 0 0 0 0.51 0 0 0 0.15 0"/>
    <feBlend in="SourceGraphic" mode="normal"/>
  </filter>
  <filter id="noise-sa-qpwaldw">
    <feTurbulence type="fractalNoise" baseFrequency="0.85" numOctaves="4" stitchTiles="stitch" result="noise"/>
    <feColorMatrix type="saturate" values="0"/>
    <feComponentTransfer>
      <feFuncA type="linear" slope="0.035"/>
    </feComponentTransfer>
  </filter>
</defs>

<rect width="1080" height="1920" fill="url(#bgGrad-sa-qpwaldw)"/>
<rect width="1080" height="1920" fill="url(#glowAccent-sa-qpwaldw)"/>
<rect width="1080" height="1920" fill="url(#glowSoft-sa-qpwaldw)"/>
<rect width="1080" height="1920" fill="url(#topicPattern-sa-qpwaldw)" opacity="0.85"/>
<rect width="1080" height="1920" filter="url(#noise-sa-qpwaldw)" opacity="0.55"/>
<g opacity="0.2" stroke-linecap="round" stroke-linejoin="round">
    <path d="M935 93 C910 103 910 148 935 158 C950 138 950 113 935 93 Z" fill="none" stroke="#5eead4" stroke-width="1.8"/>
    <path d="M975 93 C1000 103 1000 148 975 158 C960 138 960 113 975 93 Z" fill="none" stroke="#5eead4" stroke-width="1.8"/>
  </g>

<defs>
  <filter id="storyBlur-sa-qpwaldw"><feGaussianBlur stdDeviation="1.4"/></filter>
  <radialGradient id="storyFocus-sa-qpwaldw" cx="48%" cy="38%" r="62%">
    <stop offset="0%" stop-color="#5eead4" stop-opacity="0.22"/>
    <stop offset="54%" stop-color="#14b8a6" stop-opacity="0.08"/>
    <stop offset="100%" stop-color="#02030a" stop-opacity="0.88"/>
  </radialGradient>
  <linearGradient id="storyShade-sa-qpwaldw" x1="0" x2="0" y1="0" y2="1">
    <stop offset="0%" stop-color="#02030a" stop-opacity="0.86"/>
    <stop offset="38%" stop-color="#050712" stop-opacity="0.72"/>
    <stop offset="76%" stop-color="#02030a" stop-opacity="0.72"/>
    <stop offset="100%" stop-color="#010207" stop-opacity="0.96"/>
  </linearGradient>
</defs>
<rect width="1080" height="1920" fill="#02030a"/>
<image href="/social/story-backgrounds/fizyoloji.svg" x="-84" y="120" width="1248" height="1400" preserveAspectRatio="xMidYMid meet" opacity="0.66" filter="url(#storyBlur-sa-qpwaldw)"/>
<rect width="1080" height="1920" fill="url(#storyFocus-sa-qpwaldw)"/>
<rect width="1080" height="1920" fill="url(#storyShade-sa-qpwaldw)"/>
<rect width="1080" height="1920" fill="#000" opacity="0.12"/>
<path d="M34 1430 C260 1370 505 1392 720 1320 C850 1277 940 1215 1030 1188" fill="none" stroke="#5eead4" stroke-width="3" opacity="0.18"/>
<path d="M70 430 C260 360 456 395 628 326 C785 263 890 230 1034 260" fill="none" stroke="#14b8a6" stroke-width="2" opacity="0.16"/>
<text x="540" y="610" text-anchor="middle" fill="#f1f5f9" font-family="'Poppins', 'Montserrat', 'Segoe UI', system-ui, sans-serif" font-size="32" font-weight="900" letter-spacing="0.16em">DOĞRU CEVAP</text>

<g filter="url(#cardShadow-sa-qpwaldw)" opacity="0.28">
  <rect x="42" y="720" width="870" height="74" rx="12" fill="#050712" fill-opacity="0.62" stroke="rgba(148, 163, 184, 0.12)" stroke-width="1"/>
  <rect x="43" y="721" width="868" height="72" rx="11" fill="url(#glassGrad-sa-qpwaldw)" opacity="0.18"/>
  <rect x="70" y="734" width="50" height="46" rx="12" fill="#14b8a6" fill-opacity="0.75" stroke="rgba(20,184,166,0.38)" stroke-width="1"/>
  <text x="95" y="765" text-anchor="middle" fill="#f1f5f9" font-family="'Poppins', 'Montserrat', 'Segoe UI', system-ui, sans-serif" font-size="20" font-weight="900">A</text>
  <text opacity="0.42" x="140" y="765.5" fill="#f1f5f9" font-family="'Inter', 'Plus Jakarta Sans', 'Segoe UI', system-ui, sans-serif" font-size="23" font-weight="800"><tspan x="140" dy="0">Glukoz SGLT2 taşıyıcısı ile tamamen geri emilir</tspan></text>
</g>

<g filter="url(#cardShadow-sa-qpwaldw)" opacity="0.28">
  <rect x="42" y="809" width="870" height="74" rx="12" fill="#050712" fill-opacity="0.62" stroke="rgba(148, 163, 184, 0.12)" stroke-width="1"/>
  <rect x="43" y="810" width="868" height="72" rx="11" fill="url(#glassGrad-sa-qpwaldw)" opacity="0.18"/>
  <rect x="70" y="823" width="50" height="46" rx="12" fill="#14b8a6" fill-opacity="0.75" stroke="rgba(20,184,166,0.38)" stroke-width="1"/>
  <text x="95" y="854" text-anchor="middle" fill="#f1f5f9" font-family="'Poppins', 'Montserrat', 'Segoe UI', system-ui, sans-serif" font-size="20" font-weight="900">B</text>
  <text opacity="0.42" x="140" y="854.5" fill="#f1f5f9" font-family="'Inter', 'Plus Jakarta Sans', 'Segoe UI', system-ui, sans-serif" font-size="23" font-weight="800"><tspan x="140" dy="0">Amino asitler Na+ bağımlı kotransport ile reabsorbe edilir</tspan></text>
</g>

<g filter="url(#cardShadow-sa-qpwaldw)">
  <rect x="42" y="898" width="870" height="74" rx="14" fill="#0f7a43" fill-opacity="0.82" stroke="#5eead4" stroke-width="2"/>
  <rect x="43" y="899" width="868" height="72" rx="13" fill="#22c55e" opacity="0.18"/>
  <rect x="70" y="912" width="50" height="46" rx="12" fill="#22c55e" stroke="#86efac" stroke-width="1"/>
  <text x="95" y="943" text-anchor="middle" fill="#ffffff" font-family="'Poppins', 'Montserrat', 'Segoe UI', system-ui, sans-serif" font-size="23" font-weight="900">✓</text>
  <text x="135" y="943" fill="#d1fae5" font-family="'Poppins', 'Montserrat', 'Segoe UI', system-ui, sans-serif" font-size="18" font-weight="900">C</text>
  <text x="168" y="942.5" fill="#f1f5f9" font-family="'Inter', 'Plus Jakarta Sans', 'Segoe UI', system-ui, sans-serif" font-size="24" font-weight="900"><tspan x="168" dy="0">Kreatinin proksimal tübülde geri emilmez, sekrete edilir</tspan></text>
</g>

<g filter="url(#cardShadow-sa-qpwaldw)" opacity="0.28">
  <rect x="42" y="987" width="870" height="74" rx="12" fill="#050712" fill-opacity="0.62" stroke="rgba(148, 163, 184, 0.12)" stroke-width="1"/>
  <rect x="43" y="988" width="868" height="72" rx="11" fill="url(#glassGrad-sa-qpwaldw)" opacity="0.18"/>
  <rect x="70" y="1001" width="50" height="46" rx="12" fill="#14b8a6" fill-opacity="0.75" stroke="rgba(20,184,166,0.38)" stroke-width="1"/>
  <text x="95" y="1032" text-anchor="middle" fill="#f1f5f9" font-family="'Poppins', 'Montserrat', 'Segoe UI', system-ui, sans-serif" font-size="20" font-weight="900">D</text>
  <text opacity="0.42" x="140" y="1032.5" fill="#f1f5f9" font-family="'Inter', 'Plus Jakarta Sans', 'Segoe UI', system-ui, sans-serif" font-size="23" font-weight="800"><tspan x="140" dy="0">Bikarbonat karbonik anhidraz ile geri emilir</tspan></text>
</g>

<g filter="url(#cardShadow-sa-qpwaldw)">
  <rect x="42" y="1220" width="870" height="168.52" rx="16" fill="#050712" fill-opacity="0.72" stroke="#34d399" stroke-width="1.5"/>
  <rect x="43" y="1221" width="868" height="166.52" rx="15" fill="url(#glassGrad-sa-qpwaldw)" opacity="0.22"/>
</g>
<rect x="68" y="1244" width="4" height="120.52000000000001" rx="2" fill="#5eead4"/>
<text x="94" y="1290" fill="#f1f5f9" font-family="'Inter', 'Plus Jakarta Sans', 'Segoe UI', system-ui, sans-serif" font-size="26" font-weight="700"><tspan x="94" dy="0">Kreatinin glomerüler filtrasyonla süzülür ve proksimal</tspan><tspan x="94" dy="35">tübülde geri emilmez. Organik katyon taşıyıcıları ile</tspan><tspan x="94" dy="35">aktif sekresyona uğrar.</tspan></text>
</svg>